// eg_muted
// Converted from SF2 to SFZ by bash explode

<control>
default_path=vst_electricguitarmuted eg_muted Samples

<global>
ampeg_release=1000.033998526122
lokey=48 hikey=84
fileg_release=1000.033998526122

<region>
sample=vst_electricguitarmuted-eg_muted-eg_muted_0.wav
pan=0.0
lokey=82 hikey=84
pitch_keycenter=84

<region>
sample=vst_electricguitarmuted-eg_muted-eg_muted_1.wav
pan=0.0
lokey=72 hikey=75
pitch_keycenter=72

<region>
sample=vst_electricguitarmuted-eg_muted-eg_muted_2.wav
pan=0.0
lokey=60 hikey=61
pitch_keycenter=60

<region>
sample=vst_electricguitarmuted-eg_muted-eg_muted_3.wav
pan=0.0
lokey=48 hikey=51
pitch_keycenter=48

<region>
sample=vst_electricguitarmuted-eg_muted-eg_muted_4.wav
pan=0.0
lokey=79 hikey=81
pitch_keycenter=79

<region>
sample=vst_electricguitarmuted-eg_muted-eg_muted_5.wav
pan=0.0
lokey=67 hikey=71
pitch_keycenter=67

<region>
sample=vst_electricguitarmuted-eg_muted-eg_muted_6.wav
pan=0.0
lokey=55 hikey=59
pitch_keycenter=55

<region>
sample=vst_electricguitarmuted-eg_muted-eg_muted_7.wav
pan=0.0
lokey=76 hikey=78
pitch_keycenter=76

<region>
sample=vst_electricguitarmuted-eg_muted-eg_muted_8.wav
pan=0.0
lokey=62 hikey=66
pitch_keycenter=64

<region>
sample=vst_electricguitarmuted-eg_muted-eg_muted_9.wav
pan=0.0
lokey=52 hikey=54
pitch_keycenter=52

